<svg width="18" height="17" viewBox="0 0 18 17" fill="none" xmlns="http://www.w3.org/2000/svg">
<path d="M9.00016 3.95324L7.63577 2.55662L7.63521 2.55605C7.28731 2.20177 6.87231 1.92037 6.41444 1.72827C5.95657 1.53617 5.46502 1.43723 4.96849 1.43723C4.47196 1.43723 3.9804 1.53617 3.52253 1.72827C3.06471 1.92035 2.64974 2.20172 2.30187 2.55595C1.58792 3.28087 1.18773 4.25752 1.18773 5.275C1.18773 6.29259 1.58801 7.26935 2.30211 7.9943L2.30239 7.99459L8.77739 14.5508L8.99974 14.776L9.22208 14.5508L15.6971 7.99459L15.6974 7.9943C16.4115 7.26935 16.8117 6.29259 16.8117 5.275C16.8117 4.25753 16.4116 3.28087 15.6976 2.55595C15.3499 2.20148 14.935 1.91997 14.4771 1.72791C14.0193 1.53591 13.5278 1.43718 13.0314 1.4375C13.0312 1.4375 13.031 1.4375 13.0307 1.4375L13.031 1.75C12.5738 1.74935 12.1213 1.84089 11.7003 2.01915C11.2793 2.19741 10.8986 2.45874 10.581 2.7875M9.00016 3.95324L10.3571 2.56949L10.3579 2.5687L10.581 2.7875M9.00016 3.95324L10.3563 2.57036M9.00016 3.95324L10.3563 2.57036M10.581 2.7875L10.3563 2.57036M10.581 2.7875L10.3563 2.57036M9.91662 2.11879L9.91545 2.11998L9.2217 2.81998L8.99974 3.04394L8.77778 2.81998L8.08403 2.11998L8.08319 2.11913C7.67662 1.70575 7.19182 1.37744 6.65707 1.15333C6.12232 0.929228 5.5483 0.813811 4.96849 0.813811C4.38867 0.813811 3.81466 0.929228 3.27991 1.15333C2.74516 1.37744 2.26038 1.70574 1.85381 2.1191L9.91662 2.11879ZM9.91662 2.11879C10.3226 1.70475 10.8072 1.37593 11.3419 1.15161C11.8767 0.927301 12.4508 0.81201 13.0307 0.812502L13.031 0.5M9.91662 2.11879L13.031 0.5M13.031 0.5L13.0309 0.812502C13.6108 0.812661 14.1849 0.92827 14.7196 1.15259C15.2544 1.37691 15.7391 1.70544 16.1456 2.11904C16.9745 2.96287 17.4389 4.09841 17.4389 5.28125C17.4389 6.46391 16.9746 7.59929 16.146 8.44307C16.1458 8.44322 16.1457 8.44336 16.1456 8.44351L8.99974 15.6802L1.85392 8.44351C1.85381 8.4434 1.85371 8.44329 1.8536 8.44318C1.02488 7.59939 0.560547 6.46396 0.560547 5.28125C0.560547 4.09845 1.02495 2.96295 1.85378 2.11913L13.031 0.5Z" fill="#BDBDBD" stroke="#252B42" stroke-width="0.625"/>
</svg>
