<svg xmlns="http://www.w3.org/2000/svg">
    <defs>
  
        <symbol id="btn-arrow-nav" viewBox="0 0 12 10">
            <path fill-rule="evenodd" clip-rule="evenodd" d="M0 5C0 4.81059 0.079009 4.62895 0.219646 4.49502C0.360282 4.36109 0.551026 4.28584 0.749916 4.28584H9.43845L6.21831 1.22068C6.07749 1.08658 5.99838 0.904705 5.99838 0.715059C5.99838 0.525414 6.07749 0.343536 6.21831 0.209436C6.35912 0.0753365 6.5501 0 6.74925 0C6.94839 0 7.13937 0.0753365 7.28019 0.209436L11.7797 4.49438C11.8495 4.56072 11.9049 4.63952 11.9427 4.72629C11.9805 4.81305 12 4.90606 12 5C12 5.09394 11.9805 5.18695 11.9427 5.27371C11.9049 5.36048 11.8495 5.43928 11.7797 5.50562L7.28019 9.79056C7.13937 9.92466 6.94839 10 6.74925 10C6.5501 10 6.35912 9.92466 6.21831 9.79056C6.07749 9.65646 5.99838 9.47459 5.99838 9.28494C5.99838 9.0953 6.07749 8.91342 6.21831 8.77932L9.43845 5.71416H0.749916C0.551026 5.71416 0.360282 5.63892 0.219646 5.50499C0.079009 5.37106 0 5.18941 0 5Z"/>
        </symbol>

        <symbol id="redline" viewBox="0 0 50 2">
            <rect x="0.5" width="50" height="2"/>
        </symbol>
  
        <symbol id="arrow-next" viewBox="0 0 10 17">
            <g clip-path="url(#clip0_2636_2174)">
                <path fill-rule="evenodd" clip-rule="evenodd" d="M0.680771 0.680771C0.737928 0.623469 0.805828 0.578007 0.880583 0.546987C0.955337 0.515967 1.03548 0.5 1.11641 0.5C1.19735 0.5 1.27749 0.515967 1.35224 0.546987C1.427 0.578007 1.4949 0.623469 1.55205 0.680771L8.9358 8.06452C8.9931 8.12168 9.03857 8.18958 9.06959 8.26433C9.10061 8.33909 9.11657 8.41923 9.11657 8.50016C9.11657 8.5811 9.10061 8.66123 9.06959 8.73599C9.03857 8.81074 8.9931 8.87864 8.9358 8.9358L1.55205 16.3196C1.43651 16.4351 1.27981 16.5 1.11641 16.5C0.953015 16.5 0.79631 16.4351 0.680771 16.3196C0.565232 16.204 0.500322 16.0473 0.500322 15.8839C0.500322 15.7205 0.565232 15.5638 0.680771 15.4483L7.63011 8.50016L0.680771 1.55205C0.623469 1.4949 0.578006 1.427 0.546986 1.35224C0.515967 1.27749 0.5 1.19735 0.5 1.11641C0.5 1.03548 0.515967 0.955338 0.546986 0.880583C0.578006 0.805829 0.623469 0.737928 0.680771 0.680771Z"/>
            </g>
            <defs>
                <clipPath id="clip0_2636_2174">
                <rect width="9" height="16" transform="translate(0.5 0.5)"/>
                </clipPath>
            </defs>
        </symbol>

        <symbol id="heart" viewBox="0 0 18 17">
            <path d="M9.00016 3.95324L7.63577 2.55662L7.63521 2.55605C7.28731 2.20177 6.87231 1.92037 6.41444 1.72827C5.95657 1.53617 5.46502 1.43723 4.96849 1.43723C4.47196 1.43723 3.9804 1.53617 3.52253 1.72827C3.06471 1.92035 2.64974 2.20172 2.30187 2.55595C1.58792 3.28087 1.18773 4.25752 1.18773 5.275C1.18773 6.29259 1.58801 7.26935 2.30211 7.9943L2.30239 7.99459L8.77739 14.5508L8.99974 14.776L9.22208 14.5508L15.6971 7.99459L15.6974 7.9943C16.4115 7.26935 16.8117 6.29259 16.8117 5.275C16.8117 4.25753 16.4116 3.28087 15.6976 2.55595C15.3499 2.20148 14.935 1.91997 14.4771 1.72791C14.0193 1.53591 13.5278 1.43718 13.0314 1.4375C13.0312 1.4375 13.031 1.4375 13.0307 1.4375L13.031 1.75C12.5738 1.74935 12.1213 1.84089 11.7003 2.01915C11.2793 2.19741 10.8986 2.45874 10.581 2.7875M9.00016 3.95324L10.3571 2.56949L10.3579 2.5687L10.581 2.7875M9.00016 3.95324L10.3563 2.57036M9.00016 3.95324L10.3563 2.57036M10.581 2.7875L10.3563 2.57036M10.581 2.7875L10.3563 2.57036M9.91662 2.11879L9.91545 2.11998L9.2217 2.81998L8.99974 3.04394L8.77778 2.81998L8.08403 2.11998L8.08319 2.11913C7.67662 1.70575 7.19182 1.37744 6.65707 1.15333C6.12232 0.929228 5.5483 0.813811 4.96849 0.813811C4.38867 0.813811 3.81466 0.929228 3.27991 1.15333C2.74516 1.37744 2.26038 1.70574 1.85381 2.1191L9.91662 2.11879ZM9.91662 2.11879C10.3226 1.70475 10.8072 1.37593 11.3419 1.15161C11.8767 0.927301 12.4508 0.81201 13.0307 0.812502L13.031 0.5M9.91662 2.11879L13.031 0.5M13.031 0.5L13.0309 0.812502C13.6108 0.812661 14.1849 0.92827 14.7196 1.15259C15.2544 1.37691 15.7391 1.70544 16.1456 2.11904C16.9745 2.96287 17.4389 4.09841 17.4389 5.28125C17.4389 6.46391 16.9746 7.59929 16.146 8.44307C16.1458 8.44322 16.1457 8.44336 16.1456 8.44351L8.99974 15.6802L1.85392 8.44351C1.85381 8.4434 1.85371 8.44329 1.8536 8.44318C1.02488 7.59939 0.560547 6.46396 0.560547 5.28125C0.560547 4.09845 1.02495 2.96295 1.85378 2.11913L13.031 0.5Z"/>
        </symbol>

        <symbol id="cart" viewBox="0 0 19 19">
            <path d="M0 0.633333C0 0.465363 0.0667281 0.304272 0.185505 0.185499C0.304281 0.066726 0.465377 0 0.633353 0H2.53341C2.67469 3.90279e-05 2.8119 0.0473109 2.92322 0.134298C3.03454 0.221285 3.11357 0.342993 3.14776 0.480067L3.66078 2.53333H18.3672C18.4602 2.53342 18.5521 2.55398 18.6362 2.59356C18.7204 2.63315 18.7948 2.69077 18.8541 2.76235C18.9135 2.83393 18.9564 2.9177 18.9797 3.00772C19.0031 3.09774 19.0063 3.19179 18.9892 3.2832L17.0891 13.4165C17.062 13.5617 16.9849 13.6927 16.8714 13.7871C16.7578 13.8815 16.6148 13.9332 16.4672 13.9333H5.06682C4.91917 13.9332 4.7762 13.8815 4.66263 13.7871C4.54907 13.6927 4.47204 13.5617 4.44487 13.4165L2.54608 3.3022L2.0394 1.26667H0.633353C0.465377 1.26667 0.304281 1.19994 0.185505 1.08117C0.0667281 0.962395 0 0.801304 0 0.633333ZM3.92932 3.8L5.59251 12.6667H15.9415L17.6047 3.8H3.92932ZM6.33353 13.9333C5.66163 13.9333 5.01724 14.2002 4.54214 14.6753C4.06703 15.1504 3.80012 15.7948 3.80012 16.4667C3.80012 17.1385 4.06703 17.7829 4.54214 18.258C5.01724 18.7331 5.66163 19 6.33353 19C7.00543 19 7.64982 18.7331 8.12492 18.258C8.60003 17.7829 8.86694 17.1385 8.86694 16.4667C8.86694 15.7948 8.60003 15.1504 8.12492 14.6753C7.64982 14.2002 7.00543 13.9333 6.33353 13.9333ZM15.2005 13.9333C14.5286 13.9333 13.8842 14.2002 13.4091 14.6753C12.934 15.1504 12.6671 15.7948 12.6671 16.4667C12.6671 17.1385 12.934 17.7829 13.4091 18.258C13.8842 18.7331 14.5286 19 15.2005 19C15.8724 19 16.5168 18.7331 16.9919 18.258C17.467 17.7829 17.7339 17.1385 17.7339 16.4667C17.7339 15.7948 17.467 15.1504 16.9919 14.6753C16.5168 14.2002 15.8724 13.9333 15.2005 13.9333ZM6.33353 15.2C6.66948 15.2 6.99167 15.3335 7.22923 15.571C7.46678 15.8085 7.60023 16.1307 7.60023 16.4667C7.60023 16.8026 7.46678 17.1248 7.22923 17.3623C6.99167 17.5999 6.66948 17.7333 6.33353 17.7333C5.99758 17.7333 5.67539 17.5999 5.43783 17.3623C5.20028 17.1248 5.06682 16.8026 5.06682 16.4667C5.06682 16.1307 5.20028 15.8085 5.43783 15.571C5.67539 15.3335 5.99758 15.2 6.33353 15.2ZM15.2005 15.2C15.5364 15.2 15.8586 15.3335 16.0962 15.571C16.3337 15.8085 16.4672 16.1307 16.4672 16.4667C16.4672 16.8026 16.3337 17.1248 16.0962 17.3623C15.8586 17.5999 15.5364 17.7333 15.2005 17.7333C14.8645 17.7333 14.5423 17.5999 14.3048 17.3623C14.0672 17.1248 13.9338 16.8026 13.9338 16.4667C13.9338 16.1307 14.0672 15.8085 14.3048 15.571C14.5423 15.3335 14.8645 15.2 15.2005 15.2Z"/>
        </symbol>

        <symbol id="eye" viewBox="0 0 20 20">
            <path d="M12.5 10C12.5 10.663 12.2366 11.2989 11.7678 11.7678C11.2989 12.2366 10.663 12.5 10 12.5C9.33696 12.5 8.70107 12.2366 8.23223 11.7678C7.76339 11.2989 7.5 10.663 7.5 10C7.5 9.33696 7.76339 8.70107 8.23223 8.23223C8.70107 7.76339 9.33696 7.5 10 7.5C10.663 7.5 11.2989 7.76339 11.7678 8.23223C12.2366 8.70107 12.5 9.33696 12.5 10Z"/>
            <path d="M2 10C2 10 5 4.5 10 4.5C15 4.5 18 10 18 10C18 10 15 15.5 10 15.5C5 15.5 2 10 2 10ZM10 13.5C10.9283 13.5 11.8185 13.1313 12.4749 12.4749C13.1313 11.8185 13.5 10.9283 13.5 10C13.5 9.07174 13.1313 8.1815 12.4749 7.52513C11.8185 6.86875 10.9283 6.5 10 6.5C9.07174 6.5 8.1815 6.86875 7.52513 7.52513C6.86875 8.1815 6.5 9.07174 6.5 10C6.5 10.9283 6.86875 11.8185 7.52513 12.4749C8.1815 13.1313 9.07174 13.5 10 13.5Z"/>
        </symbol>

        <symbol id="star" viewBox="0 0 16 16">
            <path d="M15.5 6.3H9.775L8 0.75L6.225 6.3H0.5L5.125 9.725L3.375 15.25L8 11.825L12.625 15.25L10.85 9.7L15.5 6.3Z"/>
        </symbol>

        <symbol id="sale-count" viewBox="0 0 16 16">
            <path d="M0.5 9.90039C0.632608 9.90039 0.759785 9.95307 0.853553 10.0468C0.947322 10.1406 1 10.2678 1 10.4004V12.9004C1 13.1656 1.10536 13.42 1.29289 13.6075C1.48043 13.795 1.73478 13.9004 2 13.9004H14C14.2652 13.9004 14.5196 13.795 14.7071 13.6075C14.8946 13.42 15 13.1656 15 12.9004V10.4004C15 10.2678 15.0527 10.1406 15.1464 10.0468C15.2402 9.95307 15.3674 9.90039 15.5 9.90039C15.6326 9.90039 15.7598 9.95307 15.8536 10.0468C15.9473 10.1406 16 10.2678 16 10.4004V12.9004C16 13.4308 15.7893 13.9395 15.4142 14.3146C15.0391 14.6897 14.5304 14.9004 14 14.9004H2C1.46957 14.9004 0.960859 14.6897 0.585786 14.3146C0.210714 13.9395 0 13.4308 0 12.9004V10.4004C0 10.2678 0.0526784 10.1406 0.146447 10.0468C0.240215 9.95307 0.367392 9.90039 0.5 9.90039Z" />
            <path d="M7.64663 11.854C7.69308 11.9006 7.74825 11.9375 7.809 11.9627C7.86974 11.9879 7.93486 12.0009 8.00063 12.0009C8.0664 12.0009 8.13152 11.9879 8.19227 11.9627C8.25301 11.9375 8.30819 11.9006 8.35463 11.854L11.3546 8.854C11.4485 8.76011 11.5013 8.63278 11.5013 8.5C11.5013 8.36722 11.4485 8.23989 11.3546 8.146C11.2607 8.05211 11.1334 7.99937 11.0006 7.99937C10.8679 7.99937 10.7405 8.05211 10.6466 8.146L8.50063 10.293V1.5C8.50063 1.36739 8.44795 1.24021 8.35419 1.14645C8.26042 1.05268 8.13324 1 8.00063 1C7.86802 1 7.74085 1.05268 7.64708 1.14645C7.55331 1.24021 7.50063 1.36739 7.50063 1.5V10.293L5.35463 8.146C5.26075 8.05211 5.13341 7.99937 5.00063 7.99937C4.86786 7.99937 4.74052 8.05211 4.64663 8.146C4.55275 8.23989 4.5 8.36722 4.5 8.5C4.5 8.63278 4.55275 8.76011 4.64663 8.854L7.64663 11.854Z"/>
        </symbol>

        <symbol id="pricing-heart" viewBox="0 0 48 48">
            <path d="M4 16.7999C3.9995 13.9006 5.16477 11.1228 7.23363 9.09156C9.30248 7.06032 12.1012 5.94621 15 5.9999C18.4346 5.98166 21.712 7.43825 24 9.9999C26.288 7.43825 29.5654 5.98166 33 5.9999C35.8988 5.94621 38.6975 7.06032 40.7664 9.09156C42.8352 11.1228 44.0005 13.9006 44 16.7999C44 27.5119 31.242 35.5999 24 41.9999C16.774 35.5459 4 27.5199 4 16.7999Z"/>
        </symbol>

        <symbol id="check" viewBox="0 0 16 11">
            <g clip-path="url(#clip0_2636_2331)">
                <path fill-rule="evenodd" clip-rule="evenodd" d="M16.2957 0.204347C16.3604 0.268958 16.4118 0.345714 16.4469 0.430218C16.482 0.514722 16.5 0.605313 16.5 0.696803C16.5 0.788294 16.482 0.878885 16.4469 0.963389C16.4118 1.04789 16.3604 1.12465 16.2957 1.18926L6.55781 10.9271C6.4932 10.9919 6.41645 11.0433 6.33194 11.0783C6.24744 11.1134 6.15685 11.1314 6.06536 11.1314C5.97387 11.1314 5.88328 11.1134 5.79877 11.0783C5.71427 11.0433 5.63751 10.9919 5.5729 10.9271L0.703982 6.05818C0.573374 5.92757 0.5 5.75043 0.5 5.56572C0.5 5.38102 0.573374 5.20387 0.703982 5.07327C0.83459 4.94266 1.01173 4.86928 1.19644 4.86928C1.38115 4.86928 1.55829 4.94266 1.6889 5.07327L6.06536 9.45112L15.3107 0.204347C15.3754 0.139572 15.4521 0.08818 15.5366 0.0531148C15.6211 0.0180496 15.7117 0 15.8032 0C15.8947 0 15.9853 0.0180496 16.0698 0.0531148C16.1543 0.08818 16.231 0.139572 16.2957 0.204347Z"/>
            </g>
            <defs>
                <clipPath id="clip0_2636_2331">
                    <rect width="16" height="11"/>
                </clipPath>
            </defs>
        </symbol>

        <symbol id="star-border" viewBox="0 0 20 20">
            <path d="M19.1125 7.41964C19.0548 7.24983 18.9487 7.10061 18.8072 6.99043C18.6658 6.88024 18.4951 6.81389 18.3163 6.79959L13.0872 6.38408L10.8244 1.37506C10.7523 1.21373 10.6351 1.07671 10.4869 0.980522C10.3387 0.884337 10.1658 0.833105 9.98907 0.833008C9.81238 0.832911 9.63943 0.883954 9.4911 0.979976C9.34278 1.076 9.22541 1.2129 9.15317 1.37415L6.89035 6.38408L1.6612 6.79959C1.48551 6.8135 1.31755 6.87774 1.17741 6.98462C1.03727 7.0915 0.930895 7.23648 0.870999 7.40224C0.811104 7.56799 0.80023 7.74749 0.839678 7.91926C0.879125 8.09103 0.967224 8.2478 1.09344 8.37081L4.95774 12.1379L3.59106 18.0559C3.54957 18.235 3.56287 18.4225 3.62924 18.594C3.69561 18.7655 3.81199 18.913 3.96328 19.0175C4.11457 19.1221 4.29377 19.1787 4.47765 19.1801C4.66152 19.1815 4.84157 19.1276 4.99443 19.0254L9.98877 15.6958L14.9831 19.0254C15.1393 19.1291 15.3236 19.1825 15.5111 19.1784C15.6986 19.1743 15.8803 19.1129 16.0319 19.0024C16.1834 18.8919 16.2975 18.7377 16.3587 18.5604C16.42 18.3832 16.4255 18.1914 16.3746 18.0109L14.6969 12.1406L18.8575 8.39649C19.1299 8.15067 19.2299 7.76727 19.1125 7.41964Z"/>
        </symbol>
    </defs>
  </svg>